<?xml version="1.0" encoding="UTF-8"?>
<svg xmlns="http://www.w3.org/2000/svg" style="stroke-dasharray:none; shape-rendering:auto; font-family:'Arial'; text-rendering:auto; fill-opacity:1; color-interpolation:auto; color-rendering:auto; font-size:12; fill:black; stroke:black; image-rendering:auto; stroke-miterlimit:10; stroke-linecap:square; stroke-linejoin:miter; font-style:normal; stroke-width:1; stroke-dashoffset:0; font-weight:normal; stroke-opacity:1;" contentScriptType="text/ecmascript" preserveAspectRatio="xMidYMid meet" zoomAndPan="magnify" version="1.0" contentStyleType="text/css" xml:xlink="http://www.w3.org/1999/xlink" width="1111" height="521"><rect x="10" y="10" width="1101" height="511" ry="0" rx="0" style="stroke:#000000; fill:#FFFFFF" /><rect x="40" y="391" width="1071" height="130" ry="0" rx="0" style="stroke:#000000; fill:#D6E0D0" /><g componentSequence="23"><text x="-456" y="47" transform="rotate(270)" text-anchor="middle" style="font-weight:bold;font-size:10px;stroke:none; fill:#434343"><tspan dy="14" x="-456">Financeiro</tspan></text></g><rect x="40" y="264" width="1071" height="127" ry="0" rx="0" style="stroke:#000000; fill:#D0DAAE" /><g componentSequence="22"><text x="-327" y="47" transform="rotate(270)" text-anchor="middle" style="font-weight:bold;font-size:10px;stroke:none; fill:#434343"><tspan dy="14" x="-327">Dp</tspan></text></g><rect x="40" y="137" width="1071" height="127" ry="0" rx="0" style="stroke:#000000; fill:#ADC9AC" /><g componentSequence="21"><text x="-200" y="47" transform="rotate(270)" text-anchor="middle" style="font-weight:bold;font-size:10px;stroke:none; fill:#434343"><tspan dy="14" x="-200">Rh</tspan></text></g><rect x="40" y="10" width="1071" height="127" ry="0" rx="0" style="stroke:#000000; fill:#82B0B7" /><g componentSequence="20"><text x="-73" y="47" transform="rotate(270)" text-anchor="middle" style="font-weight:bold;font-size:10px;stroke:none; fill:#434343"><tspan dy="14" x="-73">Solicitador</tspan></text></g><g componentSequence="19"><text x="-265" y="17" transform="rotate(270)" text-anchor="middle" style="font-weight:bold;font-size:10px;stroke:none; fill:#434343"><tspan dy="14" x="-265">Pool</tspan></text></g><g sequence="1"><ellipse cx="257" cy="74" rx="17" ry="17" stroke-width="1" style="fill:url(#linearGradient66FF6696FF96B6FFB6_1759658840);" stroke="336633" /></g><g sequence="2"><ellipse cx="917" cy="74" rx="17" ry="17" stroke-width="3" style="fill:url(#linearGradientFF6666FF9696FFB6B6_1713741876);" stroke="993333" /></g><rect x="980" y="47" width="105" height="55" ry="5" rx="5" style="stroke:none; fill:#FFFFE0" /><g componentSequence="3"><text x="990" y="70" text-anchor="left" style="font-weight:bold;font-size:10px;stroke:none; fill:#000000"><tspan dy="14" x="990">Fim do</tspan><tspan dy="14" x="990">processo</tspan></text></g><path style="fill:none; stroke-width:1; stroke:#000000;" d="M1000.0 47.0 L980.0 47.0 L980.0 102.0 L1000.0 102.0" /><rect x="80" y="30" width="105" height="55" ry="5" rx="5" style="stroke:none; fill:#FFFFE0" /><g componentSequence="5"><text x="90" y="43" text-anchor="left" style="font-weight:bold;font-size:10px;stroke:none; fill:#000000"><tspan dy="14" x="90">Inicio</tspan></text></g><path style="fill:none; stroke-width:1; stroke:#000000;" d="M100.0 30.0 L80.0 30.0 L80.0 85.0 L100.0 85.0" /><g sequence="7"><rect x="540" y="174" width="105" height="56" ry="5" rx="5" style="fill:url(#linearGradientF8FBFEEDF5FCDEEDFAD4E7F8E2E5E9_1645881384);" stroke="191970" /></g><g componentSequence="7"><text x="592" y="191" text-anchor="middle" style="font-weight:bold;font-size:10px;stroke:none; fill:#333399"><tspan dy="14" x="592">Autorização</tspan></text></g><g sequence="10"><polygon points=" 360 54 390 24 420 54 390 84 360 54" style="fill:url(#linearGradientFAFBFCFFFFCC_655927823);" stroke="000000" /></g><g componentSequence="10"><text x="390" y="94" text-anchor="middle" style="font-weight:bold;font-size:10px;stroke:none; fill:#333399"><tspan dy="14" x="390">Valida</tspan><tspan dy="14" x="390">Natureza</tspan></text></g><g sequence="11"><rect x="720" y="430" width="105" height="56" ry="5" rx="5" style="fill:url(#linearGradientF8FBFEEDF5FCDEEDFAD4E7F8E2E5E9_1562039607);" stroke="191970" /></g><g componentSequence="11"><text x="772" y="447" text-anchor="middle" style="font-weight:bold;font-size:10px;stroke:none; fill:#333399"><tspan dy="14" x="772">Pagamento</tspan></text></g><g sequence="13"><rect x="330" y="301" width="105" height="56" ry="5" rx="5" style="fill:url(#linearGradientF8FBFEEDF5FCDEEDFAD4E7F8E2E5E9_376826528);" stroke="191970" /></g><g componentSequence="13"><text x="382" y="318" text-anchor="middle" style="font-weight:bold;font-size:10px;stroke:none; fill:#333399"><tspan dy="14" x="382">Autorização</tspan></text></g><g componentSequence="4"><text x="967" y="74" style="font-size:10px;font-weight:none;stroke:none; fill:#333399" text-anchor="left" /></g><g componentSequence="6"><text x="222" y="68" style="font-size:10px;font-weight:none;stroke:none; fill:#333399" text-anchor="left" /></g><g componentSequence="12"><text x="927" y="321" style="font-size:10px;font-weight:none;stroke:none; fill:#333399" text-anchor="left" /></g><g componentSequence="14"><text x="782" y="252" style="font-size:10px;font-weight:none;stroke:none; fill:#333399" text-anchor="left" /></g><g componentSequence="15"><text x="511" y="457" style="font-size:10px;font-weight:none;stroke:none; fill:#333399" text-anchor="left" /></g><g componentSequence="16"><text x="327" y="74" style="font-size:10px;font-weight:none;stroke:none; fill:#333399" text-anchor="left" /></g><g componentSequence="17"><text x="565" y="75" style="font-size:10px;font-weight:none;stroke:none; fill:#333399" text-anchor="left" /></g><g componentSequence="18"><text x="396" y="213" style="font-size:10px;font-weight:none;stroke:none; fill:#333399" text-anchor="left" /></g><path style="fill:none; stroke:#000000;stroke-dasharray:2" d="M979.0 74.0 L935.0 74.0" /><path style="fill:none; stroke:#000000;stroke-dasharray:2" d="M185.0 64.0 L240.0 72.0" /><path style="fill:none; stroke:#000000;stroke-width:1" d="M825.0 457.0 L917.0 457.0 L917.0 92.0" /><polygon style="fill:#000000; stroke:#000000;" points=" 912 102 917 92 922 102 917 100" /><path style="fill:none; stroke:#000000;stroke-width:1" d="M645.0 202.0 L772.0 202.0 L772.0 429.0" /><polygon style="fill:#000000; stroke:#000000;" points=" 777 419 772 429 767 419 772 421" /><path style="fill:none; stroke:#000000;stroke-width:1" d="M382.0 357.0 L382.0 457.0 L719.0 457.0" /><polygon style="fill:#000000; stroke:#000000;" points=" 709 452 719 457 709 462 711 457" /><path style="fill:none; stroke:#000000;stroke-width:1" d="M274.0 74.0 L359.0 74.0" /><polygon style="fill:#000000; stroke:#000000;" points=" 349 69 359 74 349 79 351 74" /><path style="fill:none; stroke:#000000;stroke-width:1" d="M420.0 75.0 L592.0 75.0 L592.0 173.0" /><polygon style="fill:#000000; stroke:#000000;" points=" 597 163 592 173 587 163 592 165" /><path style="fill:none; stroke:#000000;stroke-width:1" d="M388.0 126.0 L383.0 300.0" /><polygon style="fill:#000000; stroke:#000000;" points=" 388 290 383 300 378 290 383 292" /><defs><linearGradient xmlns:xlink="http://www.w3.org/1999/xlink" xlink:href="#linearGradient66FF6696FF96B6FFB6" id="linearGradient66FF6696FF96B6FFB6_1759658840" x1="0" y1="57.0" x2="0" y2="92.0" gradientUnits="userSpaceOnUse" xlink:type="simple" xlink:actuate="onLoad" xlink:show="other" /><linearGradient id="linearGradient66FF6696FF96B6FFB6"><stop style="stop-color:#66FF66;stop-opacity:1;" offset="0.0" id="stop66FF66" /><stop style="stop-color:#96FF96;stop-opacity:1;" offset="0.5" id="stop96FF96" /><stop style="stop-color:#B6FFB6;stop-opacity:1;" offset="1.0" id="stopB6FFB6" /></linearGradient><linearGradient xmlns:xlink="http://www.w3.org/1999/xlink" xlink:href="#linearGradientFF6666FF9696FFB6B6" id="linearGradientFF6666FF9696FFB6B6_1713741876" x1="0" y1="57.0" x2="0" y2="92.0" gradientUnits="userSpaceOnUse" xlink:type="simple" xlink:actuate="onLoad" xlink:show="other" /><linearGradient id="linearGradientFF6666FF9696FFB6B6"><stop style="stop-color:#FF6666;stop-opacity:1;" offset="0.0" id="stopFF6666" /><stop style="stop-color:#FF9696;stop-opacity:1;" offset="0.5" id="stopFF9696" /><stop style="stop-color:#FFB6B6;stop-opacity:1;" offset="1.0" id="stopFFB6B6" /></linearGradient><linearGradient xmlns:xlink="http://www.w3.org/1999/xlink" xlink:href="#linearGradientF8FBFEEDF5FCDEEDFAD4E7F8E2E5E9" id="linearGradientF8FBFEEDF5FCDEEDFAD4E7F8E2E5E9_1645881384" x1="0" y1="174.0" x2="0" y2="279.0" gradientUnits="userSpaceOnUse" xlink:type="simple" xlink:actuate="onLoad" xlink:show="other" /><linearGradient id="linearGradientF8FBFEEDF5FCDEEDFAD4E7F8E2E5E9"><stop style="stop-color:#F8FBFE;stop-opacity:1;" offset="0.0" id="stopF8FBFE" /><stop style="stop-color:#EDF5FC;stop-opacity:1;" offset="0.25" id="stopEDF5FC" /><stop style="stop-color:#DEEDFA;stop-opacity:1;" offset="0.5" id="stopDEEDFA" /><stop style="stop-color:#D4E7F8;stop-opacity:1;" offset="0.75" id="stopD4E7F8" /><stop style="stop-color:#E2E5E9;stop-opacity:1;" offset="1.0" id="stopE2E5E9" /></linearGradient><linearGradient xmlns:xlink="http://www.w3.org/1999/xlink" xlink:href="#linearGradientFAFBFCFFFFCC" id="linearGradientFAFBFCFFFFCC_655927823" x1="0" y1="24.0" x2="0" y2="84.0" gradientUnits="userSpaceOnUse" xlink:type="simple" xlink:actuate="onLoad" xlink:show="other" /><linearGradient id="linearGradientFAFBFCFFFFCC"><stop style="stop-color:#FAFBFC;stop-opacity:1;" offset="0.0" id="stopFAFBFC" /><stop style="stop-color:#FFFFCC;stop-opacity:1;" offset="1.0" id="stopFFFFCC" /></linearGradient><linearGradient xmlns:xlink="http://www.w3.org/1999/xlink" xlink:href="#linearGradientF8FBFEEDF5FCDEEDFAD4E7F8E2E5E9" id="linearGradientF8FBFEEDF5FCDEEDFAD4E7F8E2E5E9_1562039607" x1="0" y1="430.0" x2="0" y2="535.0" gradientUnits="userSpaceOnUse" xlink:type="simple" xlink:actuate="onLoad" xlink:show="other" /><linearGradient xmlns:xlink="http://www.w3.org/1999/xlink" xlink:href="#linearGradientF8FBFEEDF5FCDEEDFAD4E7F8E2E5E9" id="linearGradientF8FBFEEDF5FCDEEDFAD4E7F8E2E5E9_376826528" x1="0" y1="301.0" x2="0" y2="406.0" gradientUnits="userSpaceOnUse" xlink:type="simple" xlink:actuate="onLoad" xlink:show="other" /></defs></svg>
